<?xml version="1.0" encoding="utf-8"?>
<!-- Generator: Adobe Illustrator 26.5.0, SVG Export Plug-In . SVG Version: 6.00 Build 0)  -->
<svg version="1.1" id="Capa_1" xmlns="http://www.w3.org/2000/svg" xmlns:xlink="http://www.w3.org/1999/xlink" x="0px" y="0px"
	 viewBox="0 0 202.5 202.5" style="enable-background:new 0 0 202.5 202.5;" xml:space="preserve">
<style type="text/css">
	.st0{fill:#FFFFFF;}
</style>
<path class="st0" d="M0.1,52c1.1,25.3,10.4,63.5,48.7,101.8c38.3,38.3,76.5,47.6,101.8,48.7c0.9,0,1.8,0.1,2.6,0.1c0,0,0,0,0,0
	c16.6,0,32.3-6.5,44.1-18.3c7-7,7-18.4,0-25.5l-29.4-29.4c-3.4-3.4-7.9-5.3-12.7-5.3c-4.8,0-9.3,1.9-12.7,5.3l-11.7,11.7
	c-0.8,0.1-1.7,0.1-2.9,0.1c-9.2,0-27.2-2.7-45.5-21C61.3,99.1,61,78.3,61.4,71.9l11.7-11.7c7-7,7-18.4,0-25.5L43.7,5.3
	C40.3,1.9,35.8,0,31,0s-9.3,1.9-12.7,5.3C6,17.6-0.7,34.6,0.1,52z"/>
</svg>
