<?xml version="1.0" encoding="iso-8859-1"?>
<!-- Generator: Adobe Illustrator 18.0.0, SVG Export Plug-In . SVG Version: 6.00 Build 0)  -->
<!DOCTYPE svg PUBLIC "-//W3C//DTD SVG 1.1//EN" "http://www.w3.org/Graphics/SVG/1.1/DTD/svg11.dtd">
<svg version="1.1" id="Capa_1" xmlns="http://www.w3.org/2000/svg" xmlns:xlink="http://www.w3.org/1999/xlink" x="0px" y="0px"
	 viewBox="0 0 294.666 294.666" style="enable-background:new 0 0 294.666 294.666;" xml:space="preserve" fill="#ffffff">
<path d="M279.666,117.183h-8l-41.5-71.184c-4.024-6.903-11.414-11.148-19.404-11.148H15c-8.284,0-15,6.716-15,15v147.667
	c0,8.284,6.716,15,15,15h4.684c0.378,26.143,21.751,47.299,47.982,47.299c26.232,0,47.604-21.155,47.982-47.299h64.388
	c0.378,26.143,21.751,47.299,47.982,47.299c26.232,0,47.604-21.155,47.982-47.299h3.665c8.284,0,15-6.716,15-15v-65.334
	C294.666,123.899,287.95,117.183,279.666,117.183z M233.577,117.517h-56.822c-2.597,0-4.701-2.105-4.701-4.701V69.551
	c0-2.596,2.105-4.701,4.701-4.701h32.178c1.689,0,3.249,0.907,4.085,2.374l24.644,43.264
	C239.448,113.622,237.184,117.517,233.577,117.517z M67.666,229.816c-9.925,0-18-8.075-18-18s8.075-18,18-18c9.925,0,18,8.075,18,18
	S77.591,229.816,67.666,229.816z M228.018,229.816c-9.925,0-18-8.075-18-18s8.075-18,18-18c9.925,0,18,8.075,18,18
	S237.943,229.816,228.018,229.816z"/>
<g>
</g>
<g>
</g>
<g>
</g>
<g>
</g>
<g>
</g>
<g>
</g>
<g>
</g>
<g>
</g>
<g>
</g>
<g>
</g>
<g>
</g>
<g>
</g>
<g>
</g>
<g>
</g>
<g>
</g>
</svg>
