<?xml version="1.0" encoding="utf-8"?>
<!-- Generator: Adobe Illustrator 26.5.0, SVG Export Plug-In . SVG Version: 6.00 Build 0)  -->
<svg version="1.1" id="Capa_1" xmlns="http://www.w3.org/2000/svg" xmlns:xlink="http://www.w3.org/1999/xlink" x="0px" y="0px"
	 viewBox="0 0 339.6 338.5" style="enable-background:new 0 0 339.6 338.5;" xml:space="preserve">
<style type="text/css">
	.st0{fill:#FFFFFF;}
</style>
<g>
	<path class="st0" d="M14.2,261.1c-29.6-52.2-9.5-134,51.7-195.2c69.5-69.5,165.6-86,214.6-37c0.1,0.1,0.1,0.1,0.2,0.2
		c-9.8,28.6-41.1,89.3-134.8,122.2C60.1,181.5,27,229.3,14.2,261.1z M325.3,76.5c-7.4,17.3-20.4,40-42.7,62.3
		c-22.4,22.4-54.3,44.4-99.4,60.3C91.7,231.2,66.1,283.8,58.9,309.3c0.3,0.3,0.6,0.7,1,1c49,49,145.1,32.5,214.6-37
		C336.3,211.5,356.2,128.6,325.3,76.5z"/>
</g>
</svg>
